<svg xmlns="http://www.w3.org/2000/svg" version="1.1" xmlns:xlink="http://www.w3.org/1999/xlink" xmlns:svgjs="http://svgjs.dev/svgjs" width="100%" height="100%" viewBox="0 0 1000 600"><rect width="1000" height="600" x="0" y="0" fill="#441f05"/><g><rect width="333.3333333333333" height="333.3333333333333" y="211.84230845385792" fill="#fcedda" transform="matrix(0.659212755766824,0,0,0.6592127557668241,0,50.482033001906956)" x="189.6200714111328"/><path d="M324.17047526947977 453.5089725447595L305.0410369424932 453.5089725447595L305.0410369424932 303.5089756035087L356.38696945789275 303.5089756035087Q373.91274229638935 303.5089756035087 385.2243113669877 309.89500067374524Q396.56451732130904 316.28102574398173 402.0341621124085 327.04849402384247Q407.532443787231 337.8445991874261 407.532443787231 351.2180238860829L407.532443787231 351.2180238860829Q407.532443787231 364.6200854684627 402.0341621124085 375.47346439949257Q396.56451732130904 386.35548021424535 385.2815851344338 392.79877905192797Q373.99865294755847 399.2420778896106 356.4728801090618 399.2420778896106L356.4728801090618 399.2420778896106L320.132674664532 399.2420778896106L320.132674664532 382.43222714418977L355.5851367136478 382.43222714418977Q367.4694434587068 382.43222714418977 374.7145750406343 378.365789655519Q381.95970662256184 374.27071528312507 385.2243113669877 367.1687681198128Q388.4889161114136 360.0668209565004 388.4889161114136 351.2180238860829L388.4889161114136 351.2180238860829Q388.4889161114136 342.3692268156655 385.2243113669877 335.35319030352224Q381.95970662256184 328.365790675102 374.65730127318824 324.32799007015427Q367.35489592381464 320.3188263489296 355.3846785275865 320.3188263489296L355.3846785275865 320.3188263489296L324.17047526947977 320.3188263489296L324.17047526947977 453.5089725447595Z " fill="#441f05" transform="matrix(0.659212755766824,0,0,0.6592127557668241,0,50.482033001906956)"/><path d="M625.1142444493332 451.1414458424202L606.2867377752264 451.1414458424202L606.2867377752264 303.5089908140196L656.8222459588694 303.5089908140196Q674.071398780057 303.5089908140196 685.2044304211831 309.7942213354655Q696.3656469525399 316.07945185691136 701.7489609866034 326.6769705836541Q707.1604599108975 337.30267420062756 707.1604599108975 350.4650179383639L707.1604599108975 350.4650179383639Q707.1604599108975 363.655546566331 701.7489609866034 374.3376199637658Q696.3656469525399 385.0478782514314 685.2608002016445 391.3894785533386Q674.1559534507492 397.7310788552459 656.9068006295615 397.7310788552459L656.9068006295615 397.7310788552459L621.1401749268047 397.7310788552459L621.1401749268047 381.1865482898257L656.0330690324098 381.1865482898257Q667.7297984781499 381.1865482898257 674.8605757065167 377.1842938770664Q681.9913529348835 373.15385457407655 685.2044304211831 366.16400179686315Q688.4175079074828 359.17414901964986 688.4175079074828 350.4650179383639L688.4175079074828 350.4650179383639Q688.4175079074828 341.755886857078 685.2044304211831 334.8505887505568Q681.9913529348835 327.97347553426624 674.8042059260553 323.9994060117377Q667.617058917227 320.0535213794399 655.835774800795 320.0535213794399L655.835774800795 320.0535213794399L625.1142444493332 320.0535213794399L625.1142444493332 451.1414458424202ZM751.5516620242482 451.1414458424202L733.7106265082158 451.1414458424202L733.7106265082158 340.3748272357738L750.9597793294035 340.3748272357738L750.9597793294035 357.3985009351158L752.1435447190928 357.3985009351158Q755.215697754239 348.9712187561369 763.0792821286041 343.8697536243804Q770.9710513931997 338.76828849262387 780.863947864175 338.76828849262387L780.863947864175 338.76828849262387Q782.8650750705547 338.76828849262387 785.5708245327017 338.8810280535467Q788.3047588850794 338.9655827242388 789.8831127379987 339.0783222851616L789.8831127379987 339.0783222851616L789.8831127379987 357.00391247188605Q789.093935811539 356.8066182402711 785.9372281057008 356.41202977704137Q782.7523355096318 356.0174413138116 779.2010393405639 356.0174413138116L779.2010393405639 356.0174413138116Q771.2529002955067 356.0174413138116 764.9676697740609 359.3432583610341Q758.682439252615 362.66907540825656 755.1029581933163 368.4469779055498Q751.5516620242482 374.2530652930738 751.5516620242482 381.77843098467036L751.5516620242482 381.77843098467036L751.5516620242482 451.1414458424202ZM856.6813025847549 453.5089766217989L856.6813025847549 453.5089766217989Q840.6159151532565 453.5089766217989 828.9755554879779 446.3781993934321Q817.3351958226993 439.2474221650653 811.0499653012535 426.4796668905587Q804.7647347798077 413.6837267258215 804.7647347798077 396.63186813624867L804.7647347798077 396.63186813624867Q804.7647347798077 379.60819443690656 810.9090408501 366.6149600405544Q817.0533469203923 353.6499105344329 828.2991181224412 346.29365418422054Q839.54488932449 338.9655827242388 854.5956207076832 338.9655827242388L854.5956207076832 338.9655827242388Q863.417491349892 338.9655827242388 871.9856979800244 341.8968113082315Q880.5539046101568 344.8280398922241 887.5437573873702 351.31056464528484Q894.5336101645834 357.79308939834567 898.6767890284962 368.39060812508836Q902.8481527826397 379.0163117420619 902.8481527826397 394.37707691779275L902.8481527826397 394.37707691779275L902.8481527826397 401.7897030484665L816.8560526887775 401.7897030484665L816.8560526887775 386.73897166527337L893.2371052139714 386.73897166527337L884.9225625959151 392.29139504072106Q884.9225625959151 381.3838425214406 881.4840059877698 372.9001905620002Q878.0736342698553 364.4447234927905 871.3374455047184 359.625107263341Q864.6012567395813 354.83367592412225 854.5956207076832 354.83367592412225L854.5956207076832 354.83367592412225Q844.5899846757851 354.83367592412225 837.4592074474183 359.73784682426384Q830.3284302190515 364.64201772440543 826.5516549281379 372.50560209877045Q822.7748796372242 380.39737136336606 822.7748796372242 389.41653623718975L822.7748796372242 389.41653623718975L822.7748796372242 399.42217226908787Q822.7748796372242 411.7107844096725 827.0589829522904 420.278991039805Q831.3149013771259 428.84719766993743 838.981191519876 433.24404054592645Q846.6756665528568 437.6690683121462 856.765857255447 437.6690683121462L856.765857255447 437.6690683121462Q863.3047517889692 437.6690683121462 868.6598809328019 435.7806806666893Q874.0150100766347 433.89229302123255 877.8763400382404 430.0873328400882Q881.7376699998462 426.28237265894387 883.8233518769179 420.61720972257336L883.8233518769179 420.61720972257336L901.0725046981056 425.38045617156143Q898.4794947968813 433.6949987896176 892.335188726589 440.0365990915249Q886.1908826562966 446.3781993934321 877.1435328922422 449.9576804527308Q868.0679982379572 453.5089766217989 856.6813025847549 453.5089766217989ZM979.1446506371414 451.1414458424202L960.4298835239573 451.1414458424202L918.0961783974477 340.3748272357738L937.628307327322 340.3748272357738L961.2190604504169 406.0456214733021Q964.9676508510998 416.24855173681505 967.6170305327856 426.4232971100974Q970.2382253242405 436.5698575931489 973.1130841277718 446.09635049112507L973.1130841277718 446.09635049112507L966.5741895942498 446.09635049112507Q969.449048397781 436.5698575931489 972.0702431892361 426.4232971100974Q974.6914379806909 416.24855173681505 978.3554737106818 406.0456214733021L978.3554737106818 406.0456214733021L1001.9462268337768 340.3748272357738L1021.4501708734203 340.3748272357738L979.1446506371414 451.1414458424202ZM1089.0375376466363 453.5089766217989L1089.0375376466363 453.5089766217989Q1072.9721502151378 453.5089766217989 1061.3317905498593 446.3781993934321Q1049.6914308845808 439.2474221650653 1043.4062003631348 426.4796668905587Q1037.1209698416887 413.6837267258215 1037.1209698416887 396.63186813624867L1037.1209698416887 396.63186813624867Q1037.1209698416887 379.60819443690656 1043.2652759119815 366.6149600405544Q1049.4095819822737 353.6499105344329 1060.6553531843224 346.29365418422054Q1071.9011243863713 338.9655827242388 1086.9518557695646 338.9655827242388L1086.9518557695646 338.9655827242388Q1095.7737264117732 338.9655827242388 1104.3419330419056 341.8968113082315Q1112.9101396720382 344.8280398922241 1119.8999924492514 351.31056464528484Q1126.8898452264648 357.79308939834567 1131.0612089806082 368.39060812508836Q1135.204387844521 379.0163117420619 1135.204387844521 394.37707691779275L1135.204387844521 394.37707691779275L1135.204387844521 401.7897030484665L1049.2122877506586 401.7897030484665L1049.2122877506586 386.73897166527337L1125.5933402758526 386.73897166527337L1117.2787976577965 392.29139504072106Q1117.2787976577965 381.3838425214406 1113.868425939882 372.9001905620002Q1110.4298693317364 364.4447234927905 1103.6936805665996 359.625107263341Q1096.9574918014625 354.83367592412225 1086.9518557695646 354.83367592412225L1086.9518557695646 354.83367592412225Q1076.9462197376665 354.83367592412225 1069.8154425092994 359.73784682426384Q1062.6846652809327 364.64201772440543 1058.9078899900192 372.50560209877045Q1055.1592995893361 380.39737136336606 1055.1592995893361 389.41653623718975L1055.1592995893361 389.41653623718975L1055.1592995893361 399.42217226908787Q1055.1592995893361 411.7107844096725 1059.4152180141718 420.278991039805Q1063.6711364390071 428.84719766993743 1071.3374265817574 433.24404054592645Q1079.0319016147382 437.6690683121462 1089.1220923173282 437.6690683121462L1089.1220923173282 437.6690683121462Q1095.6609868508503 437.6690683121462 1101.0161159946833 435.7806806666893Q1106.3712451385159 433.89229302123255 1110.2325751001217 430.0873328400882Q1114.0939050617276 426.28237265894387 1116.1795869387993 420.61720972257336L1116.1795869387993 420.61720972257336L1133.428739759987 425.38045617156143Q1130.8639147489932 433.6949987896176 1124.719608678701 440.0365990915249Q1118.5753026084085 446.3781993934321 1109.4997679541236 449.9576804527308Q1100.4242332998385 453.5089766217989 1089.0375376466363 453.5089766217989ZM1178.6091187997972 384.7660293491244L1178.6091187997972 384.7660293491244L1178.6091187997972 451.1414458424202L1160.7680832837648 451.1414458424202L1160.7680832837648 340.3748272357738L1177.9044965440296 340.3748272357738L1178.0172361049526 367.2068427353991L1175.536965764651 367.2068427353991Q1180.582061115946 351.84607755966823 1189.9676295627687 345.4199225870688Q1199.3250131193608 338.9655827242388 1211.8954741622524 338.9655827242388L1211.8954741622524 338.9655827242388Q1223.1130604740706 338.9655827242388 1231.5121577628188 343.58790472207346Q1239.939439941798 348.1820418296773 1244.6463166103244 357.4548707155772Q1249.3531932788514 366.7276996014771 1249.3531932788514 380.7919598265959L1249.3531932788514 380.7919598265959L1249.3531932788514 451.1414458424202L1231.5121577628188 451.1414458424202L1231.5121577628188 382.28575900882294Q1231.5121577628188 369.4898188440856 1224.8323387781434 362.2463020547961Q1218.1525197934675 355.0309701557372 1206.5403450184199 355.0309701557372L1206.5403450184199 355.0309701557372Q1198.6203908635935 355.0309701557372 1192.278790561686 358.49771165411306Q1185.9371902597788 361.96445315248906 1182.273154529788 368.5879023567033Q1178.6091187997972 375.23953645114824 1178.6091187997972 384.7660293491244ZM1266.996934563269 340.3748272357738L1324.2686315120486 340.3748272357738L1324.2686315120486 355.62285285058186L1266.996934563269 355.62285285058186L1266.996934563269 340.3748272357738ZM1283.6542046896116 423.8021023186423L1283.6542046896116 313.99376997983967L1301.4670553154133 313.99376997983967L1301.4670553154133 422.3928578071074Q1301.4670553154133 429.83366882801187 1304.511023460329 433.24404054592645Q1307.5268067150137 436.68259715407174 1314.5730292726885 436.68259715407174L1314.5730292726885 436.68259715407174Q1316.2359377962998 436.68259715407174 1318.8571325877547 436.288008690842Q1321.5065122694405 435.8934202276121 1323.676748817204 435.4988317643824L1323.676748817204 435.4988317643824L1327.3407845471952 450.5495631475755Q1324.5786653045866 451.53603430565005 1321.0555540257492 452.0433623298026Q1317.5324427469118 452.5225054637245 1314.0657012485358 452.5225054637245L1314.0657012485358 452.5225054637245Q1299.6914072308796 452.5225054637245 1291.6587135151303 444.9407699916665Q1283.6542046896116 437.35903451960843 1283.6542046896116 423.8021023186423L1283.6542046896116 423.8021023186423Z " fill="#fcedda" transform="matrix(0.659212755766824,0,0,0.6592127557668241,0,50.482033001906956)"/></g></svg>